<svg width="96" height="96" xmlns="http://www.w3.org/2000/svg" xmlns:xlink="http://www.w3.org/1999/xlink" xml:space="preserve" overflow="hidden"><defs><clipPath id="clip0"><rect x="592" y="312" width="96" height="96"/></clipPath></defs><g clip-path="url(#clip0)" transform="translate(-592 -312)"><path d="M639.83 347.36C637.83 346.94 629.1 345 625.28 345 620.74 345 614.92 346.82 613.52 347.3 613.309 347.371 613.165 347.567 613.16 347.79L613.16 350.27C613.124 350.711 613.307 351.141 613.65 351.42L614.37 352.03C614.43 354.45 614.74 358.09 615.83 359.85 617.22 362.27 621.53 365 625.89 365 633.59 365 637.22 359.18 638.56 353.85 638.699 353.262 639.226 352.848 639.83 352.85 640.428 352.865 640.945 353.272 641.1 353.85 642.5 359.18 646.13 365 653.77 365 658.14 365 662.44 362.27 663.83 359.85 664.83 358.03 665.17 354.45 665.29 352.03L666.01 351.48C666.342 351.193 666.523 350.768 666.5 350.33L666.5 347.85C666.44 347.54 666.32 347.36 666.14 347.3 662.349 345.978 658.389 345.204 654.38 345 650.56 345 641.83 346.94 639.83 347.36Z"/><path d="M659.46 373.41C658.584 372.741 657.332 372.906 656.66 373.78 649.599 382.981 636.417 384.716 627.215 377.655 625.76 376.538 624.457 375.236 623.34 373.78 622.666 372.905 621.41 372.741 620.535 373.415 619.66 374.089 619.496 375.345 620.17 376.22 628.578 387.172 644.272 389.234 655.224 380.826 656.954 379.498 658.502 377.95 659.83 376.22 660.504 375.345 660.341 374.089 659.467 373.415 659.464 373.413 659.462 373.412 659.46 373.41Z"/><path d="M640 326C658.778 326 674 341.222 674 360 674 378.778 658.778 394 640 394 621.222 394 606 378.778 606 360 606 341.222 621.222 326 640 326M640 322C619.013 322 602 339.013 602 360 602 380.987 619.013 398 640 398 660.987 398 678 380.987 678 360 678 339.013 660.987 322 640 322Z"/></g></svg>